PathFileType	4	(X/Y/Z)	pose_F01_0-81.trc
DataRate	CameraRate	NumFrames	NumMarkers	Units	OrigDataRate	OrigDataStartFrame	OrigNumFrames
30	30	7	21	m	30	11	81
Frame#	Time	CHip			RHip			RKnee			RAnkle			RBigToe			RSmallToe			RHeel			LHip			LKnee			LAnkle			LBigToe			LSmallToe			LHeel			Neck			Nose			RShoulder			RElbow			RWrist			LShoulder			LElbow			LWrist			
		X1	Y1	Z1	X2	Y2	Z2	X3	Y3	Z3	X4	Y4	Z4	X5	Y5	Z5	X6	Y6	Z6	X7	Y7	Z7	X8	Y8	Z8	X9	Y9	Z9	X10	Y10	Z10	X11	Y11	Z11	X12	Y12	Z12	X13	Y13	Z13	X14	Y14	Z14	X15	Y15	Z15	X16	Y16	Z16	X17	Y17	Z17	X18	Y18	Z18	X19	Y19	Z19	X20	Y20	Z20	X21	Y21	Z21	
11	0.36666666666666664	-0.21157505168136034	1.8371876756166283	-0.466842292334052	-0.22400684972823168	1.836157004873673	-0.4119082490563119	-0.24154149994634191	1.7141609364764494	-0.44201034600304656													-0.19889545359339772	1.8379419334291476	-0.5335675546279623	-0.20601269218622428	1.7248051479333097	-0.4780083114215671	-0.20629024346529679	1.6098808600414762	-0.4424622757945149	-0.2234164082709994	1.5979579941544149	-0.5277811542359498	-0.2002306308270127	1.6033735527979143	-0.48205435648928524	-0.21058765769328455	1.6047297197669084	-0.41837341735922995	-1.7783039256274007	1.8903923002548164	1.2415277565600762	-0.22209773096892543	2.0374929755495215	-0.5338422237374856	-0.22704581816449798	1.9793270744414337	-0.4162364613275592	-0.2458843583623276	1.9123638565150718	-0.3617431627034709	-0.2548413108421362	1.877431949433802	-0.4460253513633382	-1.5847285067480301	1.8901074887308205	0.9288238840703499	-0.1726888642777869	1.9075118333843435	-0.617694789849717	-0.18688702113031672	1.838711746408603	-0.6241475777026997
12	0.4	-0.21609681569755895	1.8343116553729484	-0.47060163922768533	-0.22767621865297014	1.832156829967769	-0.4123276681667437	-0.24154149994634191	1.7141609364764494	-0.44201034600304656													-0.20249634474685888	1.8350083883569357	-0.5341462659645392	-0.20616106785440083	1.7225342101309218	-0.47763021491204527	-0.20629024346529679	1.6098808600414762	-0.4424622757945149	-0.2234164082709994	1.5979579941544149	-0.5277811542359498	-0.2002306308270127	1.6033735527979143	-0.48205435648928524	-0.21058765769328455	1.6047297197669084	-0.41837341735922995	-1.7565908222417594	1.8903380582885247	1.2037932949708672	-0.22400553024350747	2.0389679941939423	-0.5315304414701626	-0.23097206692691635	1.9776931477887087	-0.42011251695617835	-0.2531987867486639	1.9129856878059996	-0.38471563701180844	-0.25740412567688165	1.9120062418617676	-0.48707177636138016	-1.578404583953339	1.8899648204400366	0.9154877004644174	-0.17337446472776452	1.9148479990452407	-0.63070783956308	-0.19540003860173977	1.853858325595323	-0.6167521094805288
13	0.43333333333333335	-0.21759369338392573	1.8420390696405826	-0.4782097793887152	-0.22628299169717678	1.8411725071256129	-0.41902625540451816	-0.24154149994634191	1.7141609364764494	-0.44201034600304656													-0.20212894722746105	1.8431333080121797	-0.5354015929295232	-0.2078215554289514	1.722551594006109	-0.4846164149252112	-0.20629024346529679	1.6098808600414762	-0.4424622757945149	-0.2234164082709994	1.5979579941544149	-0.5277811542359498	-0.2002306308270127	1.6033735527979143	-0.48205435648928524	-0.21058765769328455	1.6047297197669084	-0.41837341735922995	-1.7585325058558579	1.8902420518551508	1.2057222305554804	-0.2269702871358992	2.0390194128996106	-0.5323770040298268	-0.2319015532583992	1.9785679558817622	-0.4233038251978366	-0.2543435232785764	1.9166509715014415	-0.4295199433885514	-0.2230129630753988	1.9168395100203552	-0.582244345098863	-0.18423657450697262	1.9832114591168606	-0.5968117007179017	-0.18106860646998815	1.922665664300407	-0.6398560209033092	-0.2145262341317365	1.8861443290880946	-0.600943256113028
14	0.4666666666666667	-0.22053006987312335	1.8316272252160724	-0.4835686187699813	-0.2340363485449076	1.8300261348482736	-0.4319420718356254	-0.24154149994634191	1.7141609364764494	-0.44201034600304656													-0.20461464199523455	1.83372154091942	-0.5406253914626771	-0.2079341362254931	1.7175474559123733	-0.4841870977961917	-0.20629024346529679	1.6098808600414762	-0.4424622757945149	-0.2234164082709994	1.5979579941544149	-0.5277811542359498	-0.20160098435830964	1.6031539110891362	-0.49066533391094436	-0.21058765769328455	1.6047297197669084	-0.41837341735922995	-1.749064708532133	1.8901746165547235	1.1885263072934766	-0.22907238551695197	2.037415236662301	-0.5303690422311959	-0.23414291925581954	1.9761871483067865	-0.4211655014679259	-0.25172271161995086	1.9222313887909837	-0.4550214852506263	-0.20286555647289675	1.929706024201178	-0.5732564191473113	-1.5655634466113524	1.8898346740232883	0.8889597543935165	-0.18276480909587337	1.9190329146989304	-0.6454878278729675	-0.24904333581242147	1.9224161304473655	-0.5770110510498132
15	0.5	-0.22420898571883124	1.8348741424823414	-0.4883511062667639	-0.2370868433595669	1.8320097311191244	-0.4335324231818955	-0.2466432791552567	1.7115197069490367	-0.44056942415150113													-0.209253616402513	1.837262119755039	-0.5486613067249189	-0.21112569975434342	1.7160433473707506	-0.48494714307557407	-0.20629024346529679	1.6098808600414762	-0.4424622757945149	-0.2234164082709994	1.5979579941544149	-0.5277811542359498	-0.20297133788960658	1.6029342693803579	-0.4992763113326035	-0.21058765769328455	1.6047297197669084	-0.41837341735922995	-1.7411890391245335	1.890121519621842	1.17287529536649	-0.23113894263680826	2.0396381020117405	-0.5285748883317731	-0.23607955544424208	1.9765221854144597	-0.4192019840063215	-0.24428917232507388	1.9100111642680744	-0.47162196343724994	-0.20628545251729774	1.9268945483859117	-0.613134771463668	-0.1941102511286014	1.9811425598274834	-0.6023586861520995	-0.19290999254761404	1.9241994386288745	-0.6644240713364366	-0.2300163243103736	1.9246201500090334	-0.5246224793359558
16	0.5333333333333333	-0.22890616735489697	1.8412813736794427	-0.4966819055903972	-0.24357884375681918	1.8373019681015814	-0.43111469456465185	-0.25174505836417144	1.7088784774216237	-0.4391285022999557													-0.2158769871986798	1.8419393345061472	-0.5547591181148114	-0.21535424507693648	1.717660618552201	-0.4983653666699296	-0.20629024346529679	1.6098808600414762	-0.4424622757945149	-0.2234164082709994	1.5979579941544149	-0.5277811542359498	-0.20434169142090353	1.6027146276715798	-0.5078872887542626	-0.21058765769328455	1.6047297197669084	-0.41837341735922995	-1.7322807577471564	1.8902141496581943	1.1562828871610662	-0.23595850780531072	2.0433385627917193	-0.527596424246826	-0.2411075077763172	1.9796168862860597	-0.4269315568867046	-0.2603021424487853	1.9097622658744442	-0.4633203411403783	-0.2829978021607391	1.9290540463939176	-0.5374595176676012	-0.1982668546292287	1.9838382821063523	-0.5983516047582921	-1.339191728658325	1.8442353318458211	0.5049024329884518	-0.23063667772589355	1.9442739124291715	-0.5675426589523905
17	0.5666666666666667	-0.23607659427380534	1.8386234840734257	-0.5018401930816535	-0.2519864710408746	1.8379455107994727	-0.4397569875072434	-0.25174505836417144	1.7088784774216237	-0.4391285022999557													-0.22125340879298142	1.8412536710359078	-0.553365185541661	-0.21921309415417164	1.7160200785495572	-0.5120112536676201	-0.20629024346529679	1.6098808600414762	-0.4424622757945149	-0.2234164082709994	1.5979579941544149	-0.5277811542359498	-0.2057120449522005	1.6024949859628015	-0.5164982661759216	-0.21058765769328455	1.6047297197669084	-0.41837341735922995	-0.22524013680672905	1.9845818983105046	-0.5141411145945742	-0.24083224187337277	2.046020210606866	-0.5267678631855982	-0.24601176277844447	1.9812253735983327	-0.43439052403736567	-0.2701278996914348	1.909891075860198	-0.46127098348329154	-0.2858388414847458	1.9326558024937521	-0.5384217251857388	-0.2011532289379603	1.988161778317912	-0.5993603593197382	-1.346739369145054	1.8482561014429026	0.5079822894253351	-0.23764588241955198	1.95404740927423	-0.56539885823714
